<!-- Generated by IcoMoon.io -->
<svg version="1.1" xmlns="http://www.w3.org/2000/svg" width="32" height="32" viewBox="0 0 32 32">
<title>moisture</title>
<path d="M25 0c-0.552 0-1 0.448-1 1s0.448 1 1 1v0h3v5.5h-1c-0.552 0-1 0.448-1 1s0.448 1 1 1v0h1v5.5h-3c-0.552 0-1 0.448-1 1s0.448 1 1 1v0h3v5.5h-1c-0.552 0-1 0.448-1 1s0.448 1 1 1v0h1v5.5h-3c-0.552 0-1 0.448-1 1s0.448 1 1 1v0h4c0.552 0 1-0.448 1-1v0-30c0-0.552-0.448-1-1-1v0h-4zM12 3l0.728-0.686c-0.183-0.194-0.441-0.314-0.728-0.314s-0.545 0.121-0.728 0.314l-0 0.001-0.004 0.004-0.012 0.014-0.044 0.046-0.16 0.176c-0.822 0.909-1.656 1.897-2.456 2.912l-0.092 0.122c-1.538 1.966-3.428 4.65-4.77 7.454-0.998 2.086-1.734 4.322-1.734 6.424 0 5.762 4.424 10.534 10 10.534s10-4.772 10-10.534c0-2.1-0.736-4.338-1.734-6.424-1.342-2.804-3.232-5.488-4.77-7.454-0.94-1.198-1.826-2.243-2.749-3.255l0.041 0.045-0.044-0.046-0.012-0.014-0.004-0.002-0.728 0.684zM12 3v0zM11.968 4.532l0.032-0.038 0.032 0.038c0.48 0.548 1.144 1.334 1.888 2.288 1.222 1.562 2.64 3.552 3.802 5.654h-11.442c1.16-2.102 2.58-4.092 3.8-5.654 0.746-0.954 1.412-1.74 1.89-2.288zM4 19.466c0-1.51 0.488-3.224 1.276-4.992h13.448c0.79 1.768 1.276 3.482 1.276 4.992 0 4.768-3.636 8.534-8 8.534s-8-3.766-8-8.534z"></path>
</svg>
