<!-- Generated by IcoMoon.io -->
<svg version="1.1" xmlns="http://www.w3.org/2000/svg" width="32" height="32" viewBox="0 0 32 32">
<title>speedometer2</title>
<path d="M16 7.952c0.552 0 1 0.448 1 1v0 3c0 0.552-0.448 1-1 1s-1-0.448-1-1v0-3c0-0.552 0.448-1 1-1v0zM7.464 11.416c0.181-0.181 0.431-0.293 0.707-0.293s0.526 0.112 0.707 0.293l1.83 1.828c0.181 0.181 0.293 0.431 0.293 0.708 0 0.553-0.448 1.001-1.001 1.001-0.277 0-0.527-0.112-0.708-0.293v0l-1.828-1.83c-0.181-0.181-0.293-0.431-0.293-0.707s0.112-0.526 0.293-0.707v0zM4 19.952c0-0.552 0.448-1 1-1v0h3.172c0.552 0 1 0.448 1 1s-0.448 1-1 1v0h-3.172c-0.552 0-1-0.448-1-1v0zM23 19.952c0-0.552 0.448-1 1-1v0h3c0.552 0 1 0.448 1 1s-0.448 1-1 1v0h-3c-0.552 0-1-0.448-1-1v0zM24.508 11.46c-0.141-0.14-0.335-0.226-0.549-0.226-0.193 0-0.37 0.071-0.506 0.187l0.001-0.001-8.36 7.152c-0.397 0.336-0.647 0.835-0.647 1.392 0 1.005 0.815 1.82 1.82 1.82 0.579 0 1.095-0.27 1.428-0.692l0.003-0.004 6.868-8.594c0.106-0.132 0.17-0.301 0.17-0.486 0-0.215-0.087-0.41-0.228-0.55v0z"></path>
<path d="M0 19.952c0.008-8.83 7.168-15.986 16-15.986 8.837 0 16 7.163 16 16 0 1.902-0.332 3.727-0.941 5.419l0.035-0.112c-0.884 2.506-3.69 3.204-5.864 2.5-2.612-0.846-6.28-1.822-9.23-1.822-2.948 0-6.62 0.976-9.23 1.822-2.174 0.704-4.98 0.006-5.864-2.5-0.574-1.58-0.906-3.403-0.906-5.304 0-0.006 0-0.013 0-0.019v0.001zM16 5.952c-0.001 0-0.002 0-0.004 0-7.732 0-14 6.268-14 14 0 1.67 0.292 3.271 0.828 4.756l-0.031-0.098c0.406 1.15 1.846 1.752 3.36 1.26 2.64-0.852 6.562-1.918 9.846-1.918s7.208 1.064 9.846 1.92c1.514 0.49 2.954-0.112 3.36-1.262 0.505-1.387 0.798-2.988 0.798-4.658 0-7.732-6.268-14-14-14-0.001 0-0.003 0-0.004 0h0z"></path>
</svg>
