<!-- Generated by IcoMoon.io -->
<svg version="1.1" xmlns="http://www.w3.org/2000/svg" width="32" height="32" viewBox="0 0 32 32">
<title>eye</title>
<path d="M32 16s-6-11-16-11-16 11-16 11 6 11 16 11 16-11 16-11zM2.346 16c1.016-1.532 2.109-2.869 3.321-4.087l-0.001 0.001c2.574-2.578 6.094-4.914 10.334-4.914s7.758 2.336 10.336 4.914c1.211 1.217 2.304 2.554 3.26 3.99l0.060 0.096c-0.116 0.174-0.244 0.366-0.39 0.576-0.67 0.96-1.66 2.24-2.93 3.51-2.578 2.578-6.098 4.914-10.336 4.914-4.24 0-7.758-2.336-10.336-4.914-1.211-1.217-2.304-2.554-3.26-3.99l-0.060-0.096z"></path>
<path d="M16 11c-2.761 0-5 2.239-5 5s2.239 5 5 5v0c2.761 0 5-2.239 5-5s-2.239-5-5-5v0zM9 16c0-3.866 3.134-7 7-7s7 3.134 7 7v0c0 3.866-3.134 7-7 7s-7-3.134-7-7v0z"></path>
</svg>
