<!-- Generated by IcoMoon.io -->
<svg version="1.1" xmlns="http://www.w3.org/2000/svg" width="32" height="32" viewBox="0 0 32 32">
<title>gear-fill</title>
<path d="M18.81 2.1c-0.826-2.8-4.794-2.8-5.62 0l-0.2 0.68c-0.369 1.224-1.486 2.101-2.809 2.101-0.514 0-0.997-0.132-1.416-0.365l0.015 0.008-0.62-0.34c-2.566-1.396-5.372 1.41-3.974 3.974l0.338 0.622c0.892 1.64 0.046 3.682-1.744 4.21l-0.68 0.2c-2.8 0.826-2.8 4.794 0 5.62l0.68 0.2c1.224 0.369 2.101 1.486 2.101 2.809 0 0.514-0.132 0.997-0.365 1.416l0.008-0.015-0.34 0.62c-1.396 2.566 1.41 5.372 3.974 3.974l0.622-0.338c0.405-0.225 0.887-0.357 1.401-0.357 1.322 0 2.44 0.877 2.803 2.080l0.005 0.021 0.2 0.68c0.826 2.8 4.794 2.8 5.62 0l0.2-0.68c0.369-1.224 1.486-2.101 2.809-2.101 0.514 0 0.997 0.132 1.416 0.365l-0.015-0.008 0.62 0.34c2.566 1.396 5.372-1.41 3.974-3.974l-0.338-0.622c-0.225-0.405-0.357-0.887-0.357-1.401 0-1.322 0.877-2.44 2.080-2.803l0.021-0.005 0.68-0.2c2.8-0.826 2.8-4.794 0-5.62l-0.68-0.2c-1.224-0.369-2.101-1.486-2.101-2.809 0-0.514 0.132-0.997 0.365-1.416l-0.008 0.015 0.34-0.62c1.396-2.566-1.41-5.372-3.974-3.974l-0.622 0.338c-0.405 0.225-0.887 0.357-1.401 0.357-1.322 0-2.44-0.877-2.803-2.080l-0.005-0.021-0.2-0.68zM16 21.86c-3.236 0-5.86-2.624-5.86-5.86s2.624-5.86 5.86-5.86v0c3.235 0 5.858 2.623 5.858 5.858s-2.623 5.858-5.858 5.858v0z"></path>
</svg>
