<!-- Generated by IcoMoon.io -->
<svg version="1.1" xmlns="http://www.w3.org/2000/svg" width="32" height="32" viewBox="0 0 32 32">
<title>water</title>
<path d="M0.062 5.786c0.152-0.371 0.51-0.628 0.928-0.628 0.134 0 0.262 0.026 0.379 0.074l-0.007-0.002 3.514 1.406c0.33 0.136 0.713 0.215 1.114 0.215s0.784-0.079 1.134-0.222l-0.020 0.007 2.028-0.812c0.55-0.226 1.188-0.358 1.857-0.358s1.307 0.131 1.89 0.37l-0.033-0.012 2.030 0.812c0.33 0.136 0.713 0.215 1.114 0.215s0.784-0.079 1.134-0.222l-0.020 0.007 2.028-0.812c0.55-0.226 1.188-0.358 1.857-0.358s1.307 0.131 1.89 0.37l-0.033-0.012 2.030 0.812c0.33 0.136 0.713 0.215 1.114 0.215s0.784-0.079 1.134-0.222l-0.020 0.007 3.514-1.406c0.115-0.050 0.25-0.080 0.391-0.080 0.552 0 1 0.448 1 1 0 0.426-0.266 0.789-0.64 0.933l-0.007 0.002-3.516 1.406c-0.55 0.226-1.188 0.358-1.857 0.358s-1.307-0.131-1.89-0.37l0.033 0.012-2.028-0.812c-0.33-0.136-0.713-0.215-1.114-0.215s-0.784 0.079-1.134 0.222l0.020-0.007-2.030 0.812c-0.55 0.226-1.188 0.358-1.857 0.358s-1.307-0.131-1.89-0.37l0.033 0.012-2.028-0.812c-0.33-0.136-0.713-0.215-1.114-0.215s-0.784 0.079-1.134 0.222l0.020-0.007-2.030 0.812c-0.55 0.226-1.188 0.358-1.857 0.358s-1.307-0.131-1.89-0.37l0.033 0.012-3.514-1.406c-0.371-0.152-0.628-0.51-0.628-0.928 0-0.134 0.026-0.262 0.074-0.379l-0.002 0.007zM0.062 11.786c0.152-0.371 0.51-0.628 0.928-0.628 0.134 0 0.262 0.026 0.379 0.074l-0.007-0.002 3.514 1.406c0.33 0.136 0.713 0.214 1.114 0.214s0.784-0.079 1.134-0.222l-0.020 0.007 2.028-0.812c0.55-0.226 1.188-0.358 1.857-0.358s1.307 0.131 1.89 0.37l-0.033-0.012 2.030 0.812c0.33 0.136 0.713 0.214 1.114 0.214s0.784-0.079 1.134-0.222l-0.020 0.007 2.028-0.812c0.55-0.226 1.188-0.358 1.857-0.358s1.307 0.131 1.89 0.37l-0.033-0.012 2.030 0.812c0.33 0.136 0.713 0.214 1.114 0.214s0.784-0.079 1.134-0.222l-0.020 0.007 3.514-1.406c0.115-0.050 0.25-0.080 0.391-0.080 0.552 0 1 0.448 1 1 0 0.426-0.266 0.789-0.64 0.933l-0.007 0.002-3.516 1.406c-0.55 0.226-1.188 0.358-1.857 0.358s-1.307-0.131-1.89-0.37l0.033 0.012-2.028-0.812c-0.33-0.136-0.713-0.214-1.114-0.214s-0.784 0.079-1.134 0.222l0.020-0.007-2.030 0.812c-0.55 0.226-1.188 0.358-1.857 0.358s-1.307-0.131-1.89-0.37l0.033 0.012-2.028-0.812c-0.33-0.136-0.713-0.214-1.114-0.214s-0.784 0.079-1.134 0.222l0.020-0.007-2.030 0.812c-0.55 0.226-1.188 0.358-1.857 0.358s-1.307-0.131-1.89-0.37l0.033 0.012-3.514-1.406c-0.371-0.152-0.628-0.51-0.628-0.928 0-0.134 0.026-0.262 0.074-0.379l-0.002 0.007zM0.062 17.786c0.152-0.371 0.51-0.628 0.928-0.628 0.134 0 0.262 0.026 0.379 0.074l-0.007-0.002 3.514 1.406c0.33 0.136 0.713 0.215 1.114 0.215s0.784-0.079 1.134-0.222l-0.020 0.007 2.028-0.812c0.55-0.226 1.188-0.358 1.857-0.358s1.307 0.131 1.89 0.37l-0.033-0.012 2.030 0.812c0.33 0.136 0.713 0.215 1.114 0.215s0.784-0.079 1.134-0.222l-0.020 0.007 2.028-0.812c0.55-0.226 1.188-0.358 1.857-0.358s1.307 0.131 1.89 0.37l-0.033-0.012 2.030 0.812c0.33 0.136 0.713 0.215 1.114 0.215s0.784-0.079 1.134-0.222l-0.020 0.007 3.514-1.406c0.115-0.050 0.25-0.080 0.391-0.080 0.552 0 1 0.448 1 1 0 0.426-0.266 0.789-0.64 0.933l-0.007 0.002-3.516 1.406c-0.55 0.226-1.188 0.358-1.857 0.358s-1.307-0.131-1.89-0.37l0.033 0.012-2.028-0.812c-0.33-0.136-0.713-0.215-1.114-0.215s-0.784 0.079-1.134 0.222l0.020-0.007-2.030 0.812c-0.55 0.226-1.188 0.358-1.857 0.358s-1.307-0.131-1.89-0.37l0.033 0.012-2.028-0.812c-0.33-0.136-0.713-0.215-1.114-0.215s-0.784 0.079-1.134 0.222l0.020-0.007-2.030 0.812c-0.55 0.226-1.188 0.358-1.857 0.358s-1.307-0.131-1.89-0.37l0.033 0.012-3.514-1.406c-0.371-0.152-0.628-0.51-0.628-0.928 0-0.134 0.026-0.262 0.074-0.379l-0.002 0.007zM0.062 23.786c0.152-0.371 0.51-0.628 0.928-0.628 0.134 0 0.262 0.026 0.379 0.074l-0.007-0.002 3.514 1.406c0.33 0.136 0.713 0.215 1.114 0.215s0.784-0.079 1.134-0.222l-0.020 0.007 2.028-0.812c0.55-0.226 1.188-0.358 1.857-0.358s1.307 0.131 1.89 0.37l-0.033-0.012 2.030 0.812c0.33 0.136 0.713 0.215 1.114 0.215s0.784-0.079 1.134-0.222l-0.020 0.007 2.028-0.812c0.55-0.226 1.188-0.358 1.857-0.358s1.307 0.131 1.89 0.37l-0.033-0.012 2.030 0.812c0.33 0.136 0.713 0.215 1.114 0.215s0.784-0.079 1.134-0.222l-0.020 0.007 3.514-1.406c0.115-0.050 0.25-0.080 0.391-0.080 0.552 0 1 0.448 1 1 0 0.426-0.266 0.789-0.64 0.933l-0.007 0.002-3.516 1.406c-0.55 0.226-1.188 0.358-1.857 0.358s-1.307-0.131-1.89-0.37l0.033 0.012-2.028-0.812c-0.33-0.136-0.713-0.215-1.114-0.215s-0.784 0.079-1.134 0.222l0.020-0.007-2.030 0.812c-0.55 0.226-1.188 0.358-1.857 0.358s-1.307-0.131-1.89-0.37l0.033 0.012-2.028-0.812c-0.33-0.136-0.713-0.215-1.114-0.215s-0.784 0.079-1.134 0.222l0.020-0.007-2.030 0.812c-0.55 0.226-1.188 0.358-1.857 0.358s-1.307-0.131-1.89-0.37l0.033 0.012-3.514-1.406c-0.371-0.152-0.628-0.51-0.628-0.928 0-0.134 0.026-0.262 0.074-0.379l-0.002 0.007z"></path>
</svg>
