<!-- Generated by IcoMoon.io -->
<svg version="1.1" xmlns="http://www.w3.org/2000/svg" width="32" height="32" viewBox="0 0 32 32">
<title>x-lg</title>
<path d="M2.574 2.611c0.362-0.362 0.862-0.586 1.414-0.586s1.052 0.224 1.414 0.586l10.586 10.586 10.586-10.586c0.364-0.377 0.874-0.611 1.439-0.611 1.105 0 2 0.895 2 2 0 0.564-0.234 1.074-0.61 1.438l-0.001 0.001-10.586 10.586 10.586 10.586c0.347 0.359 0.561 0.849 0.561 1.389 0 1.105-0.895 2-2 2-0.54 0-1.030-0.214-1.39-0.562l0.001 0.001-10.586-10.586-10.586 10.586c-0.359 0.347-0.849 0.561-1.389 0.561-1.105 0-2-0.895-2-2 0-0.54 0.214-1.030 0.562-1.39l-0.001 0.001 10.586-10.586-10.586-10.586c-0.362-0.362-0.586-0.862-0.586-1.414s0.224-1.052 0.586-1.414v0z"></path>
</svg>
